<?xml version="1.0" encoding="UTF-8" standalone="no"?>
<svg
   xmlns:dc="http://purl.org/dc/elements/1.1/"
   xmlns:cc="http://creativecommons.org/ns#"
   xmlns:rdf="http://www.w3.org/1999/02/22-rdf-syntax-ns#"
   xmlns:svg="http://www.w3.org/2000/svg"
   xmlns="http://www.w3.org/2000/svg"
   xmlns:sodipodi="http://sodipodi.sourceforge.net/DTD/sodipodi-0.dtd"
   xmlns:inkscape="http://www.inkscape.org/namespaces/inkscape"
   width="329.01462"
   height="35.71769"
   viewBox="0 0 329.01462 35.71769"
   version="1.1"
   id="svg6"
   sodipodi:docname="logo01.svg"
   inkscape:version="0.92.3 (2405546, 2018-03-11)">
  <metadata
     id="metadata12">
    <rdf:RDF>
      <cc:Work
         rdf:about="">
        <dc:format>image/svg+xml</dc:format>
        <dc:type
           rdf:resource="http://purl.org/dc/dcmitype/StillImage" />
        <dc:title />
      </cc:Work>
    </rdf:RDF>
  </metadata>
  <defs
     id="defs10" />
  <sodipodi:namedview
     pagecolor="#ffffff"
     bordercolor="#666666"
     borderopacity="1"
     objecttolerance="10"
     gridtolerance="10"
     guidetolerance="10"
     inkscape:pageopacity="0"
     inkscape:pageshadow="2"
     inkscape:window-width="2400"
     inkscape:window-height="1271"
     id="namedview8"
     showgrid="false"
     fit-margin-top="0"
     fit-margin-left="0"
     fit-margin-right="0"
     fit-margin-bottom="0"
     inkscape:zoom="2.626506"
     inkscape:cx="99.281764"
     inkscape:cy="18.232447"
     inkscape:window-x="2391"
     inkscape:window-y="-9"
     inkscape:window-maximized="1"
     inkscape:current-layer="svg6" />
  <g
     transform="matrix(1.548231,0,0,1.548231,-7.6172965,-14.166314)"
     id="g869"
     style="fill:#ffffff">
    <path
       inkscape:connector-curvature="0"
       style="fill:#ffffff"
       id="path8"
       d="M 12.35,28.08 A 6,6 0 0 1 10.62,28.3 6.5,6.5 0 0 1 9,28.11 3,3 0 0 1 7.73,27.42 3.27,3.27 0 0 1 6.9,26.14 6,6 0 0 1 6.61,24.14 V 17.55 H 4.92 v -3.37 h 1.66 v -3.55 h 3.94 v 3.55 h 3.26 v 3.37 h -3.26 v 5.93 q 0,1.35 1.26,1.35 a 4,4 0 0 0 2,-0.49 v 3.16 a 5.9,5.9 0 0 1 -1.43,0.58 z"
       class="cls-1" />
    <path
       inkscape:connector-curvature="0"
       style="fill:#ffffff"
       id="path10"
       d="m 28.61,22 c 0,0.14 0,0.3 0,0.49 h -9.7 a 3.26,3.26 0 0 0 1.18,2 3.52,3.52 0 0 0 2.22,0.69 4.32,4.32 0 0 0 1.76,-0.34 5.78,5.78 0 0 0 1.6,-1.08 l 2.26,2 a 7,7 0 0 1 -2.39,1.91 7.49,7.49 0 0 1 -3.29,0.68 7.85,7.85 0 0 1 -2.89,-0.52 6.57,6.57 0 0 1 -2.3,-1.47 A 6.81,6.81 0 0 1 15.54,24.09 7.56,7.56 0 0 1 15,21.2 v -0.05 a 8,8 0 0 1 0.5,-2.8 7,7 0 0 1 1.42,-2.3 6.51,6.51 0 0 1 2.16,-1.56 6.68,6.68 0 0 1 2.78,-0.57 6.85,6.85 0 0 1 3,0.62 6.14,6.14 0 0 1 2.14,1.68 7,7 0 0 1 1.25,2.41 10.19,10.19 0 0 1 0.4,2.83 v 0.06 c -0.02,0.19 -0.03,0.35 -0.04,0.48 z m -4.75,-4.1 a 2.86,2.86 0 0 0 -4,0 4,4 0 0 0 -1,2.15 h 5.93 A 3.83,3.83 0 0 0 23.86,17.9 Z"
       class="cls-1" />
    <path
       inkscape:connector-curvature="0"
       style="fill:#ffffff"
       id="path12"
       d="M 30.73,28.07 V 9.15 h 3.94 v 18.92 z"
       class="cls-1" />
    <path
       inkscape:connector-curvature="0"
       style="fill:#ffffff"
       id="path14"
       d="m 50.3,22 c 0,0.14 0,0.3 0,0.49 h -9.7 a 3.26,3.26 0 0 0 1.18,2 3.49,3.49 0 0 0 2.21,0.69 4.33,4.33 0 0 0 1.77,-0.34 5.93,5.93 0 0 0 1.6,-1.08 l 2.26,2 a 7,7 0 0 1 -2.39,1.91 7.49,7.49 0 0 1 -3.29,0.68 7.85,7.85 0 0 1 -2.89,-0.52 6.48,6.48 0 0 1 -2.3,-1.47 6.81,6.81 0 0 1 -1.52,-2.27 7.56,7.56 0 0 1 -0.54,-2.92 v -0.05 a 7.76,7.76 0 0 1 0.5,-2.8 7.16,7.16 0 0 1 1.41,-2.3 6.59,6.59 0 0 1 4.95,-2.13 6.85,6.85 0 0 1 3,0.62 6.14,6.14 0 0 1 2.11,1.68 6.82,6.82 0 0 1 1.24,2.41 9.83,9.83 0 0 1 0.41,2.83 v 0.06 c 0.01,0.22 0,0.38 -0.01,0.51 z m -4.75,-4.1 a 2.86,2.86 0 0 0 -4,0 4,4 0 0 0 -1,2.15 h 5.93 A 3.83,3.83 0 0 0 45.55,17.9 Z"
       class="cls-1" />
    <path
       inkscape:connector-curvature="0"
       style="fill:#ffffff"
       id="path16"
       d="M 58.66,28.08 A 6.08,6.08 0 0 1 56.92,28.3 6.42,6.42 0 0 1 55.28,28.11 2.92,2.92 0 0 1 54,27.42 a 3.16,3.16 0 0 1 -0.83,-1.28 5.75,5.75 0 0 1 -0.3,-2 v -6.59 h -1.65 v -3.37 h 1.66 v -3.55 h 3.94 v 3.55 h 3.26 v 3.37 h -3.26 v 5.93 c 0,0.9 0.42,1.35 1.27,1.35 A 4,4 0 0 0 60,24.34 v 3.16 a 5.82,5.82 0 0 1 -1.34,0.58 z"
       class="cls-1" />
    <path
       inkscape:connector-curvature="0"
       style="fill:#ffffff"
       id="path18"
       d="m 62.05,12.65 v -3.5 h 4.15 v 3.5 z m 0.11,15.42 V 14.18 h 3.94 v 13.89 z"
       class="cls-1" />
    <path
       inkscape:connector-curvature="0"
       style="fill:#ffffff"
       id="path20"
       d="m 78.72,27.67 a 7.05,7.05 0 0 1 -3.37,0.71 7.27,7.27 0 0 1 -2.89,-0.57 7.09,7.09 0 0 1 -2.3,-1.54 7.17,7.17 0 0 1 -2,-5.07 v -0.05 a 7.38,7.38 0 0 1 0.54,-2.8 7.21,7.21 0 0 1 1.5,-2.3 7,7 0 0 1 2.3,-1.56 7.41,7.41 0 0 1 2.94,-0.57 7.58,7.58 0 0 1 3.26,0.62 7.35,7.35 0 0 1 2.28,1.71 l -2.41,2.6 a 6.35,6.35 0 0 0 -1.38,-1.12 3.58,3.58 0 0 0 -1.78,-0.41 3,3 0 0 0 -1.36,0.3 3.33,3.33 0 0 0 -1.06,0.81 3.73,3.73 0 0 0 -0.7,1.21 A 4.34,4.34 0 0 0 72,21.1 v 0 a 4.64,4.64 0 0 0 0.25,1.51 3.49,3.49 0 0 0 0.75,1.26 3.38,3.38 0 0 0 2.53,1.13 3.61,3.61 0 0 0 1.72,-0.4 7.66,7.66 0 0 0 1.47,-1.08 L 81,25.84 a 8.8,8.8 0 0 1 -2.28,1.83 z"
       class="cls-1" />
    <path
       inkscape:connector-curvature="0"
       style="fill:#ffffff"
       id="path22"
       d="m 91.52,28.07 -3.63,-5.67 -1.37,1.45 v 4.22 H 82.58 V 9.15 h 3.94 v 10.09 l 4.61,-5.06 h 4.71 l -5.28,5.47 5.44,8.42 z"
       class="cls-1" />
    <path
       inkscape:connector-curvature="0"
       style="fill:#ffffff"
       id="path24"
       d="m 109.85,22 c 0,0.14 0,0.3 0,0.49 h -9.66 a 3.3,3.3 0 0 0 1.17,2 3.54,3.54 0 0 0 2.22,0.69 4.28,4.28 0 0 0 1.76,-0.34 5.82,5.82 0 0 0 1.61,-1.08 l 2.25,2 a 7,7 0 0 1 -2.38,1.91 7.49,7.49 0 0 1 -3.29,0.68 7.81,7.81 0 0 1 -2.89,-0.52 6.61,6.61 0 0 1 -2.31,-1.47 6.79,6.79 0 0 1 -1.51,-2.27 7.38,7.38 0 0 1 -0.55,-2.92 v -0.05 a 7.77,7.77 0 0 1 0.51,-2.8 7,7 0 0 1 1.41,-2.3 6.61,6.61 0 0 1 2.16,-1.56 6.69,6.69 0 0 1 2.79,-0.57 6.85,6.85 0 0 1 3,0.62 6.24,6.24 0 0 1 2.11,1.68 7,7 0 0 1 1.24,2.41 9.83,9.83 0 0 1 0.4,2.83 v 0.06 c -0.03,0.22 -0.03,0.38 -0.04,0.51 z m -4.76,-4.11 a 2.59,2.59 0 0 0 -2,-0.82 2.64,2.64 0 0 0 -2,0.81 4,4 0 0 0 -1,2.15 H 106 a 3.77,3.77 0 0 0 -0.91,-2.13 z"
       class="cls-1" />
    <path
       inkscape:connector-curvature="0"
       style="fill:#ffffff"
       id="path26"
       d="m 118.21,28.08 a 6.08,6.08 0 0 1 -1.74,0.22 6.5,6.5 0 0 1 -1.65,-0.19 3,3 0 0 1 -1.27,-0.69 3.15,3.15 0 0 1 -0.82,-1.28 5.75,5.75 0 0 1 -0.3,-2 v -6.59 h -1.66 v -3.37 h 1.66 v -3.55 h 3.94 v 3.55 h 3.26 v 3.37 h -3.26 v 5.93 c 0,0.9 0.42,1.35 1.27,1.35 a 4,4 0 0 0 1.94,-0.49 v 3.16 a 5.82,5.82 0 0 1 -1.37,0.58 z"
       class="cls-1" />
    <path
       inkscape:connector-curvature="0"
       style="fill:#ffffff"
       id="path28"
       d="m 121.37,28.07 v -4.14 h 4.17 v 4.14 z"
       class="cls-1" />
    <path
       inkscape:connector-curvature="0"
       style="fill:#ffffff"
       id="path30"
       d="m 137.85,27.67 a 7.05,7.05 0 0 1 -3.37,0.71 7.27,7.27 0 0 1 -2.89,-0.57 7,7 0 0 1 -2.29,-1.54 7.13,7.13 0 0 1 -2.05,-5.07 v -0.05 a 7.38,7.38 0 0 1 0.54,-2.8 7.24,7.24 0 0 1 1.51,-2.3 7,7 0 0 1 2.29,-1.56 7.41,7.41 0 0 1 2.94,-0.57 7.66,7.66 0 0 1 3.27,0.62 7.59,7.59 0 0 1 2.28,1.71 l -2.41,2.6 a 6.64,6.64 0 0 0 -1.39,-1.12 3.58,3.58 0 0 0 -1.78,-0.41 3,3 0 0 0 -1.36,0.3 3.33,3.33 0 0 0 -1.06,0.81 3.92,3.92 0 0 0 -0.7,1.21 4.34,4.34 0 0 0 -0.24,1.46 v 0 a 4.64,4.64 0 0 0 0.24,1.51 3.51,3.51 0 0 0 0.72,1.21 3.34,3.34 0 0 0 1.11,0.82 3.39,3.39 0 0 0 1.45,0.3 3.61,3.61 0 0 0 1.72,-0.4 7.36,7.36 0 0 0 1.47,-1.08 l 2.3,2.33 a 8.8,8.8 0 0 1 -2.3,1.88 z"
       class="cls-1" />
    <path
       inkscape:connector-curvature="0"
       style="fill:#ffffff"
       id="path32"
       d="m 155.49,24 a 7,7 0 0 1 -1.58,2.3 7.59,7.59 0 0 1 -2.38,1.55 7.8,7.8 0 0 1 -3,0.57 7.71,7.71 0 0 1 -3,-0.56 A 7.07,7.07 0 0 1 141.6,24 7,7 0 0 1 141,21.2 v -0.05 a 7,7 0 0 1 0.57,-2.81 7.19,7.19 0 0 1 1.59,-2.29 7.34,7.34 0 0 1 2.38,-1.56 7.8,7.8 0 0 1 3,-0.57 7.9,7.9 0 0 1 3,0.56 7.33,7.33 0 0 1 2.39,1.52 7.23,7.23 0 0 1 1.56,2.28 7,7 0 0 1 0.57,2.81 v 0 A 7,7 0 0 1 155.49,24 Z m -3.31,-2.81 a 4.15,4.15 0 0 0 -0.26,-1.46 3.72,3.72 0 0 0 -0.75,-1.22 3.8,3.8 0 0 0 -1.17,-0.84 3.44,3.44 0 0 0 -1.48,-0.31 3.6,3.6 0 0 0 -1.51,0.3 3.3,3.3 0 0 0 -1.13,0.81 3.58,3.58 0 0 0 -0.71,1.21 4.11,4.11 0 0 0 -0.25,1.46 v 0 a 4.21,4.21 0 0 0 0.26,1.47 3.62,3.62 0 0 0 0.75,1.21 3.74,3.74 0 0 0 1.16,0.85 3.54,3.54 0 0 0 1.49,0.31 3.6,3.6 0 0 0 1.51,-0.3 3.32,3.32 0 0 0 1.13,-0.82 3.44,3.44 0 0 0 0.71,-1.2 4.2,4.2 0 0 0 0.25,-1.47 z"
       class="cls-1" />
    <path
       inkscape:connector-curvature="0"
       style="fill:#ffffff"
       id="path34"
       d="m 175.16,28.07 v -7.73 a 3.23,3.23 0 0 0 -0.59,-2.1 2.1,2.1 0 0 0 -1.71,-0.72 2.2,2.2 0 0 0 -1.75,0.72 3,3 0 0 0 -0.64,2.1 v 7.73 h -3.94 v -7.73 a 3.23,3.23 0 0 0 -0.59,-2.1 2.1,2.1 0 0 0 -1.71,-0.72 2.2,2.2 0 0 0 -1.75,0.72 3,3 0 0 0 -0.64,2.1 v 7.73 H 157.9 V 14.18 h 3.94 v 2 a 8.5,8.5 0 0 1 0.74,-0.85 5.61,5.61 0 0 1 0.89,-0.72 4.3,4.3 0 0 1 1.11,-0.49 4.43,4.43 0 0 1 1.36,-0.19 4.63,4.63 0 0 1 2.37,0.58 3.88,3.88 0 0 1 1.54,1.64 6.4,6.4 0 0 1 2,-1.66 5.62,5.62 0 0 1 2.54,-0.56 4.54,4.54 0 0 1 3.45,1.3 5.28,5.28 0 0 1 1.26,3.77 v 9 z"
       class="cls-1" />
    <path
       inkscape:connector-curvature="0"
       style="fill:#ffffff"
       id="path36"
       d="m 181.35,28.07 v -4.14 h 4.18 v 4.14 z"
       class="cls-1" />
    <path
       inkscape:connector-curvature="0"
       style="fill:#ffffff"
       id="path38"
       d="m 202,24.22 a 7.21,7.21 0 0 1 -1.4,2.26 5.74,5.74 0 0 1 -2,1.38 6.23,6.23 0 0 1 -2.38,0.47 5,5 0 0 1 -2.61,-0.62 7,7 0 0 1 -1.72,-1.44 v 5.95 h -3.94 v -18 h 3.94 v 2 a 6.24,6.24 0 0 1 1.75,-1.61 4.83,4.83 0 0 1 2.58,-0.63 6.16,6.16 0 0 1 2.35,0.47 5.8,5.8 0 0 1 2,1.39 7.07,7.07 0 0 1 1.43,2.16 8.33,8.33 0 0 1 0.53,3.07 v 0 A 8.33,8.33 0 0 1 202,24.22 Z m -3.41,-3.12 a 4.48,4.48 0 0 0 -0.27,-1.58 3.73,3.73 0 0 0 -0.74,-1.22 3.35,3.35 0 0 0 -1.08,-0.79 3.29,3.29 0 0 0 -2.61,0 3.31,3.31 0 0 0 -1.07,0.79 3.86,3.86 0 0 0 -0.72,1.22 4.48,4.48 0 0 0 -0.27,1.58 v 0 a 4.44,4.44 0 0 0 0.27,1.58 3.91,3.91 0 0 0 0.72,1.23 3.24,3.24 0 0 0 3.68,0.78 3.18,3.18 0 0 0 1.08,-0.78 3.83,3.83 0 0 0 0.74,-1.22 4.42,4.42 0 0 0 0.27,-1.59 z"
       class="cls-1" />
    <path
       inkscape:connector-curvature="0"
       style="fill:#ffffff"
       id="path40"
       d="m 217.33,22 c 0,0.14 0,0.3 0,0.49 h -9.66 a 3.26,3.26 0 0 0 1.18,2 3.49,3.49 0 0 0 2.21,0.69 4.33,4.33 0 0 0 1.77,-0.34 5.93,5.93 0 0 0 1.6,-1.08 l 2.26,2 a 7,7 0 0 1 -2.39,1.91 7.49,7.49 0 0 1 -3.29,0.68 7.85,7.85 0 0 1 -2.89,-0.52 6.48,6.48 0 0 1 -2.3,-1.47 6.81,6.81 0 0 1 -1.52,-2.27 7.56,7.56 0 0 1 -0.54,-2.92 v -0.05 a 8,8 0 0 1 0.5,-2.8 7.16,7.16 0 0 1 1.41,-2.3 6.59,6.59 0 0 1 5,-2.13 6.85,6.85 0 0 1 3,0.62 6.14,6.14 0 0 1 2.11,1.68 6.82,6.82 0 0 1 1.24,2.41 9.83,9.83 0 0 1 0.41,2.83 v 0.06 c -0.08,0.22 -0.09,0.38 -0.1,0.51 z m -4.75,-4.11 a 2.86,2.86 0 0 0 -4,0 4,4 0 0 0 -1,2.15 h 5.93 a 3.83,3.83 0 0 0 -0.93,-2.14 z"
       class="cls-1" />
  </g>
</svg>
